<svg xmlns="http://www.w3.org/2000/svg" width="35.57" height="35.57" viewBox="0 0 35.57 35.57">
  <path id="github" d="M17.785.5A18.013,18.013,0,0,0,0,18.736a18.2,18.2,0,0,0,12.16,17.3c.889.172,1.215-.393,1.215-.877,0-.433-.015-1.581-.022-3.1-4.947,1.1-5.991-2.447-5.991-2.447a4.806,4.806,0,0,0-1.979-2.668c-1.611-1.13.124-1.107.124-1.107a3.738,3.738,0,0,1,2.724,1.879,3.739,3.739,0,0,0,5.18,1.517A3.924,3.924,0,0,1,14.539,26.8c-3.95-.456-8.1-2.024-8.1-9.011a7.134,7.134,0,0,1,1.83-4.893,6.637,6.637,0,0,1,.156-4.827s1.489-.489,4.891,1.87a16.367,16.367,0,0,1,8.892,0c3.379-2.358,4.869-1.87,4.869-1.87a6.821,6.821,0,0,1,.178,4.827,7.164,7.164,0,0,1,1.823,4.893c0,7.006-4.157,8.547-8.114,9a4.427,4.427,0,0,1,1.2,3.374c0,2.44-.022,4.4-.022,4.994,0,.478.311,1.049,1.223.866A18.14,18.14,0,0,0,35.57,18.736,18.016,18.016,0,0,0,17.785.5Z" transform="translate(0 -0.5)" fill="#5f5f5f"/>
</svg>
