<svg xmlns="http://www.w3.org/2000/svg" width="35.57" height="35.57" viewBox="0 0 35.57 35.57">
  <g id="logo" transform="translate(0 0)">
    <g id="Group_1" data-name="Group 1" transform="translate(0 0)">
      <path id="Path_1" data-name="Path 1" d="M26.628.2H8.914A8.936,8.936,0,0,0,0,9.121V26.877A8.93,8.93,0,0,0,8.914,35.77H26.656a8.936,8.936,0,0,0,8.914-8.921V9.121A8.979,8.979,0,0,0,26.628.2ZM11.847,28.995H6.77V14.315h5.077ZM9.28,12.057a2.6,2.6,0,1,1,2.6-2.6A2.626,2.626,0,0,1,9.28,12.057ZM28.8,28.995H24.541V21.881c0-1.722-.226-3.924-2.567-3.924-2.4,0-2.793,1.863-2.793,3.811v7.227H14.95V14.315H18.9v1.976h.113c.621-1.129,2.059-2,4.316-2,4.654,0,5.472,2.682,5.472,6.662v8.046Z" transform="translate(0 -0.2)" fill="#5f5f5f"/>
    </g>
  </g>
</svg>
