<svg xmlns="http://www.w3.org/2000/svg" width="35.57" height="35.57" viewBox="0 0 35.57 35.57">
  <path id="logo_1_" data-name="logo (1)" d="M17.785,0A17.785,17.785,0,1,0,35.57,17.785,17.787,17.787,0,0,0,17.785,0Zm8.12,13.867q.012.263.012.528A11.536,11.536,0,0,1,14.3,26.009h0a11.555,11.555,0,0,1-6.257-1.834,8.3,8.3,0,0,0,.974.056,8.191,8.191,0,0,0,5.07-1.747,4.087,4.087,0,0,1-3.814-2.835,4.069,4.069,0,0,0,1.844-.07,4.083,4.083,0,0,1-3.275-4c0-.018,0-.035,0-.052a4.054,4.054,0,0,0,1.849.51,4.086,4.086,0,0,1-1.264-5.45,11.59,11.59,0,0,0,8.414,4.265A4.084,4.084,0,0,1,24.8,11.129a8.188,8.188,0,0,0,2.592-.991A4.1,4.1,0,0,1,25.6,12.4a8.141,8.141,0,0,0,2.344-.643,8.3,8.3,0,0,1-2.036,2.114Zm0,0" fill="#5f5f5f"/>
</svg>
